<mxfile host="app.diagrams.net" agent="Mozilla/5.0 (Windows NT 10.0; Win64; x64) AppleWebKit/537.36 (KHTML, like Gecko) Chrome/140.0.0.0 Safari/537.36" version="28.2.5">
  <diagram name="PÃ¡gina-1" id="SbO5bUHS_1U7hq3dQstE">
    <mxGraphModel grid="1" page="1" gridSize="10" guides="1" tooltips="1" connect="1" arrows="1" fold="1" pageScale="1" pageWidth="827" pageHeight="1169" math="0" shadow="0">
      <root>
        <mxCell id="0" />
        <mxCell id="1" parent="0" />
        <mxCell id="NxCngeiVD-eRV_JA3t_T-31" value="" style="rounded=1;whiteSpace=wrap;html=1;dashed=1;fillColor=none;" vertex="1" parent="1">
          <mxGeometry x="220" y="-260" width="870" height="1140" as="geometry" />
        </mxCell>
        <mxCell id="n2zm1Caj27rSro79MBF2-34" value="" style="rounded=1;arcSize=10;fillColor=none;gradientColor=none;strokeWidth=2;" vertex="1" parent="1">
          <mxGeometry x="600" y="-60" width="420" height="710" as="geometry" />
        </mxCell>
        <mxCell id="n2zm1Caj27rSro79MBF2-6" style="edgeStyle=orthogonalEdgeStyle;rounded=0;orthogonalLoop=1;jettySize=auto;html=1;entryX=0;entryY=0.5;entryDx=0;entryDy=0;" edge="1" parent="1" source="n2zm1Caj27rSro79MBF2-1" target="n2zm1Caj27rSro79MBF2-2">
          <mxGeometry relative="1" as="geometry" />
        </mxCell>
        <mxCell id="n2zm1Caj27rSro79MBF2-1" value="" style="image;points=[];aspect=fixed;html=1;align=center;shadow=0;dashed=0;image=img/lib/allied_telesis/computer_and_terminals/Personal_Computer.svg;" vertex="1" parent="1">
          <mxGeometry x="10" y="87.54" width="75.6" height="102.46" as="geometry" />
        </mxCell>
        <mxCell id="n2zm1Caj27rSro79MBF2-7" style="edgeStyle=orthogonalEdgeStyle;rounded=0;orthogonalLoop=1;jettySize=auto;html=1;" edge="1" parent="1" source="n2zm1Caj27rSro79MBF2-2">
          <mxGeometry relative="1" as="geometry">
            <mxPoint x="250" y="305" as="targetPoint" />
          </mxGeometry>
        </mxCell>
        <mxCell id="n2zm1Caj27rSro79MBF2-8" value="HTTP/HTTPS&lt;div&gt;(80/443)&lt;/div&gt;" style="edgeLabel;html=1;align=center;verticalAlign=middle;resizable=0;points=[];" vertex="1" connectable="0" parent="n2zm1Caj27rSro79MBF2-7">
          <mxGeometry x="-0.2209" y="-3" relative="1" as="geometry">
            <mxPoint x="8" y="-18" as="offset" />
          </mxGeometry>
        </mxCell>
        <mxCell id="n2zm1Caj27rSro79MBF2-2" value="" style="image;aspect=fixed;perimeter=ellipsePerimeter;html=1;align=center;shadow=0;dashed=0;spacingTop=3;image=img/lib/active_directory/internet_globe.svg;" vertex="1" parent="1">
          <mxGeometry x="75.6" y="260" width="90" height="90" as="geometry" />
        </mxCell>
        <mxCell id="n2zm1Caj27rSro79MBF2-32" style="edgeStyle=orthogonalEdgeStyle;rounded=0;orthogonalLoop=1;jettySize=auto;html=1;entryX=0.005;entryY=0.514;entryDx=0;entryDy=0;entryPerimeter=0;" edge="1" parent="1" target="n2zm1Caj27rSro79MBF2-34">
          <mxGeometry relative="1" as="geometry">
            <mxPoint x="570" y="290" as="targetPoint" />
            <Array as="points" />
            <mxPoint x="364" y="305" as="sourcePoint" />
          </mxGeometry>
        </mxCell>
        <mxCell id="n2zm1Caj27rSro79MBF2-36" value="HTTP&lt;div&gt;80 -&amp;gt; 4200&lt;/div&gt;" style="edgeLabel;html=1;align=center;verticalAlign=middle;resizable=0;points=[];fontSize=13;" vertex="1" connectable="0" parent="n2zm1Caj27rSro79MBF2-32">
          <mxGeometry x="0.7113" relative="1" as="geometry">
            <mxPoint x="-45" y="-21" as="offset" />
          </mxGeometry>
        </mxCell>
        <mxCell id="n2zm1Caj27rSro79MBF2-23" value="" style="group" vertex="1" connectable="0" parent="1">
          <mxGeometry x="620" y="30" width="380" height="280" as="geometry" />
        </mxCell>
        <mxCell id="n2zm1Caj27rSro79MBF2-15" value="" style="rounded=1;whiteSpace=wrap;html=1;" vertex="1" parent="n2zm1Caj27rSro79MBF2-23">
          <mxGeometry width="380" height="280" as="geometry" />
        </mxCell>
        <mxCell id="n2zm1Caj27rSro79MBF2-22" style="edgeStyle=orthogonalEdgeStyle;rounded=0;orthogonalLoop=1;jettySize=auto;html=1;" edge="1" parent="n2zm1Caj27rSro79MBF2-23" source="n2zm1Caj27rSro79MBF2-9" target="n2zm1Caj27rSro79MBF2-17">
          <mxGeometry relative="1" as="geometry">
            <Array as="points">
              <mxPoint x="340" y="195" />
              <mxPoint x="340" y="76" />
            </Array>
          </mxGeometry>
        </mxCell>
        <mxCell id="n2zm1Caj27rSro79MBF2-9" value="" style="image;sketch=0;aspect=fixed;html=1;points=[];align=center;fontSize=12;image=img/lib/mscae/Docker.svg;" vertex="1" parent="n2zm1Caj27rSro79MBF2-23">
          <mxGeometry x="201.62" y="160" width="114.76" height="94.1" as="geometry" />
        </mxCell>
        <mxCell id="n2zm1Caj27rSro79MBF2-19" style="edgeStyle=orthogonalEdgeStyle;rounded=0;orthogonalLoop=1;jettySize=auto;html=1;" edge="1" parent="n2zm1Caj27rSro79MBF2-23" source="n2zm1Caj27rSro79MBF2-14" target="n2zm1Caj27rSro79MBF2-17">
          <mxGeometry relative="1" as="geometry" />
        </mxCell>
        <mxCell id="n2zm1Caj27rSro79MBF2-20" value="Send Static Files" style="edgeLabel;html=1;align=center;verticalAlign=middle;resizable=0;points=[];" vertex="1" connectable="0" parent="n2zm1Caj27rSro79MBF2-19">
          <mxGeometry x="-0.0066" y="2" relative="1" as="geometry">
            <mxPoint x="-1" y="8" as="offset" />
          </mxGeometry>
        </mxCell>
        <mxCell id="n2zm1Caj27rSro79MBF2-14" value="CloudFront" style="outlineConnect=0;dashed=0;verticalLabelPosition=bottom;verticalAlign=top;align=center;html=1;shape=mxgraph.aws3.cloudfront;fillColor=#F58536;gradientColor=none;" vertex="1" parent="n2zm1Caj27rSro79MBF2-23">
          <mxGeometry x="30" y="28.5" width="76.5" height="93" as="geometry" />
        </mxCell>
        <mxCell id="n2zm1Caj27rSro79MBF2-17" value="S3 Angular" style="sketch=0;outlineConnect=0;fontColor=#232F3E;gradientColor=none;fillColor=#7AA116;strokeColor=none;dashed=0;verticalLabelPosition=bottom;verticalAlign=top;align=center;html=1;fontSize=12;fontStyle=0;aspect=fixed;pointerEvents=1;shape=mxgraph.aws4.bucket;" vertex="1" parent="n2zm1Caj27rSro79MBF2-23">
          <mxGeometry x="215.97000000000003" y="31" width="86.06" height="89.5" as="geometry" />
        </mxCell>
        <mxCell id="n2zm1Caj27rSro79MBF2-24" value="" style="group" vertex="1" connectable="0" parent="1">
          <mxGeometry x="620" y="350" width="380" height="280" as="geometry" />
        </mxCell>
        <mxCell id="n2zm1Caj27rSro79MBF2-25" value="" style="rounded=1;whiteSpace=wrap;html=1;" vertex="1" parent="n2zm1Caj27rSro79MBF2-24">
          <mxGeometry width="380" height="280" as="geometry" />
        </mxCell>
        <mxCell id="n2zm1Caj27rSro79MBF2-26" style="edgeStyle=orthogonalEdgeStyle;rounded=0;orthogonalLoop=1;jettySize=auto;html=1;" edge="1" parent="n2zm1Caj27rSro79MBF2-24" source="n2zm1Caj27rSro79MBF2-27" target="n2zm1Caj27rSro79MBF2-31">
          <mxGeometry relative="1" as="geometry">
            <Array as="points">
              <mxPoint x="340" y="195" />
              <mxPoint x="340" y="76" />
            </Array>
          </mxGeometry>
        </mxCell>
        <mxCell id="n2zm1Caj27rSro79MBF2-27" value="" style="image;sketch=0;aspect=fixed;html=1;points=[];align=center;fontSize=12;image=img/lib/mscae/Docker.svg;" vertex="1" parent="n2zm1Caj27rSro79MBF2-24">
          <mxGeometry x="201.62" y="160" width="114.76" height="94.1" as="geometry" />
        </mxCell>
        <mxCell id="n2zm1Caj27rSro79MBF2-28" style="edgeStyle=orthogonalEdgeStyle;rounded=0;orthogonalLoop=1;jettySize=auto;html=1;" edge="1" parent="n2zm1Caj27rSro79MBF2-24" source="n2zm1Caj27rSro79MBF2-30" target="n2zm1Caj27rSro79MBF2-31">
          <mxGeometry relative="1" as="geometry" />
        </mxCell>
        <mxCell id="n2zm1Caj27rSro79MBF2-29" value="Send Static Files" style="edgeLabel;html=1;align=center;verticalAlign=middle;resizable=0;points=[];" vertex="1" connectable="0" parent="n2zm1Caj27rSro79MBF2-28">
          <mxGeometry x="-0.0066" y="2" relative="1" as="geometry">
            <mxPoint x="-1" y="8" as="offset" />
          </mxGeometry>
        </mxCell>
        <mxCell id="n2zm1Caj27rSro79MBF2-30" value="CloudFront" style="outlineConnect=0;dashed=0;verticalLabelPosition=bottom;verticalAlign=top;align=center;html=1;shape=mxgraph.aws3.cloudfront;fillColor=#F58536;gradientColor=none;" vertex="1" parent="n2zm1Caj27rSro79MBF2-24">
          <mxGeometry x="30" y="28.5" width="76.5" height="93" as="geometry" />
        </mxCell>
        <mxCell id="n2zm1Caj27rSro79MBF2-31" value="S3 Angular" style="sketch=0;outlineConnect=0;fontColor=#232F3E;gradientColor=none;fillColor=#7AA116;strokeColor=none;dashed=0;verticalLabelPosition=bottom;verticalAlign=top;align=center;html=1;fontSize=12;fontStyle=0;aspect=fixed;pointerEvents=1;shape=mxgraph.aws4.bucket;" vertex="1" parent="n2zm1Caj27rSro79MBF2-24">
          <mxGeometry x="215.97000000000003" y="31" width="86.06" height="89.5" as="geometry" />
        </mxCell>
        <mxCell id="n2zm1Caj27rSro79MBF2-86" style="edgeStyle=orthogonalEdgeStyle;rounded=0;orthogonalLoop=1;jettySize=auto;html=1;" edge="1" parent="1" source="n2zm1Caj27rSro79MBF2-46" target="n2zm1Caj27rSro79MBF2-85">
          <mxGeometry relative="1" as="geometry" />
        </mxCell>
        <mxCell id="n2zm1Caj27rSro79MBF2-87" value="Event Publishing" style="edgeLabel;html=1;align=center;verticalAlign=middle;resizable=0;points=[];fontSize=15;" vertex="1" connectable="0" parent="n2zm1Caj27rSro79MBF2-86">
          <mxGeometry x="-0.2052" relative="1" as="geometry">
            <mxPoint x="-6" y="-36" as="offset" />
          </mxGeometry>
        </mxCell>
        <mxCell id="n2zm1Caj27rSro79MBF2-93" style="edgeStyle=orthogonalEdgeStyle;rounded=0;orthogonalLoop=1;jettySize=auto;html=1;" edge="1" parent="1" source="n2zm1Caj27rSro79MBF2-46" target="n2zm1Caj27rSro79MBF2-91">
          <mxGeometry relative="1" as="geometry" />
        </mxCell>
        <mxCell id="NxCngeiVD-eRV_JA3t_T-12" style="edgeStyle=orthogonalEdgeStyle;rounded=0;orthogonalLoop=1;jettySize=auto;html=1;" edge="1" parent="1" source="n2zm1Caj27rSro79MBF2-46" target="NxCngeiVD-eRV_JA3t_T-10">
          <mxGeometry relative="1" as="geometry">
            <Array as="points">
              <mxPoint x="1210" y="-170" />
            </Array>
          </mxGeometry>
        </mxCell>
        <mxCell id="NxCngeiVD-eRV_JA3t_T-18" value="Recommendation&amp;nbsp;&lt;div&gt;Request&lt;/div&gt;" style="edgeLabel;html=1;align=center;verticalAlign=middle;resizable=0;points=[];fontSize=15;" connectable="0" vertex="1" parent="NxCngeiVD-eRV_JA3t_T-12">
          <mxGeometry x="-0.2641" y="-5" relative="1" as="geometry">
            <mxPoint x="-18" y="-8" as="offset" />
          </mxGeometry>
        </mxCell>
        <mxCell id="n2zm1Caj27rSro79MBF2-46" value="" style="rounded=1;arcSize=10;fillColor=none;gradientColor=none;strokeWidth=2;" vertex="1" parent="1">
          <mxGeometry x="1140" y="-60" width="420" height="710" as="geometry" />
        </mxCell>
        <mxCell id="n2zm1Caj27rSro79MBF2-47" value="" style="group" vertex="1" connectable="0" parent="1">
          <mxGeometry x="1160" y="30" width="907" height="950" as="geometry" />
        </mxCell>
        <mxCell id="n2zm1Caj27rSro79MBF2-48" value="" style="rounded=1;whiteSpace=wrap;html=1;" vertex="1" parent="n2zm1Caj27rSro79MBF2-47">
          <mxGeometry width="380" height="280" as="geometry" />
        </mxCell>
        <mxCell id="n2zm1Caj27rSro79MBF2-75" style="edgeStyle=orthogonalEdgeStyle;rounded=0;orthogonalLoop=1;jettySize=auto;html=1;entryX=0.982;entryY=0.426;entryDx=0;entryDy=0;entryPerimeter=0;exitX=0.982;exitY=0.55;exitDx=0;exitDy=0;exitPerimeter=0;" edge="1" parent="n2zm1Caj27rSro79MBF2-47" source="n2zm1Caj27rSro79MBF2-50" target="n2zm1Caj27rSro79MBF2-72">
          <mxGeometry relative="1" as="geometry">
            <Array as="points">
              <mxPoint x="350" y="232" />
              <mxPoint x="350" y="74" />
            </Array>
          </mxGeometry>
        </mxCell>
        <mxCell id="n2zm1Caj27rSro79MBF2-50" value="" style="image;sketch=0;aspect=fixed;html=1;points=[];align=center;fontSize=12;image=img/lib/mscae/Docker.svg;" vertex="1" parent="n2zm1Caj27rSro79MBF2-47">
          <mxGeometry x="194.24" y="180" width="114.76" height="94.1" as="geometry" />
        </mxCell>
        <mxCell id="n2zm1Caj27rSro79MBF2-73" style="edgeStyle=orthogonalEdgeStyle;rounded=0;orthogonalLoop=1;jettySize=auto;html=1;" edge="1" parent="n2zm1Caj27rSro79MBF2-47" target="n2zm1Caj27rSro79MBF2-72">
          <mxGeometry relative="1" as="geometry">
            <mxPoint x="131" y="80.5" as="sourcePoint" />
          </mxGeometry>
        </mxCell>
        <mxCell id="n2zm1Caj27rSro79MBF2-72" value="Spring" style="image;aspect=fixed;html=1;points=[];align=center;fontSize=12;image=img/lib/azure2/compute/Azure_Spring_Cloud.svg;" vertex="1" parent="n2zm1Caj27rSro79MBF2-47">
          <mxGeometry x="201.62" y="31" width="100" height="100" as="geometry" />
        </mxCell>
        <mxCell id="NxCngeiVD-eRV_JA3t_T-1" value="AWS Lambda" style="outlineConnect=0;dashed=0;verticalLabelPosition=bottom;verticalAlign=top;align=center;html=1;shape=mxgraph.aws3.lambda_function;fillColor=#F58534;gradientColor=none;" vertex="1" parent="n2zm1Caj27rSro79MBF2-47">
          <mxGeometry x="37" y="25.5" width="104.46" height="109" as="geometry" />
        </mxCell>
        <mxCell id="NxCngeiVD-eRV_JA3t_T-32" value="" style="rounded=1;whiteSpace=wrap;html=1;dashed=1;fillColor=none;" vertex="1" parent="n2zm1Caj27rSro79MBF2-47">
          <mxGeometry x="-60" y="-290" width="870" height="1140" as="geometry" />
        </mxCell>
        <mxCell id="NxCngeiVD-eRV_JA3t_T-38" value="&lt;span style=&quot;text-wrap-mode: nowrap;&quot;&gt;AUTO SCALING&amp;nbsp;&lt;/span&gt;&lt;div&gt;&lt;span style=&quot;text-wrap-mode: nowrap;&quot;&gt;GROUP&lt;/span&gt;&lt;/div&gt;" style="text;html=1;align=center;verticalAlign=middle;whiteSpace=wrap;rounded=0;fontColor=light-dark(#000000,#FFFFFF);fontSize=16;" vertex="1" parent="n2zm1Caj27rSro79MBF2-47">
          <mxGeometry x="380" y="-130" width="190" height="30" as="geometry" />
        </mxCell>
        <mxCell id="NxCngeiVD-eRV_JA3t_T-36" value="Design API" style="text;html=1;align=center;verticalAlign=middle;whiteSpace=wrap;rounded=0;fontSize=25;" vertex="1" parent="n2zm1Caj27rSro79MBF2-47">
          <mxGeometry x="120" y="-60" width="170" height="30" as="geometry" />
        </mxCell>
        <mxCell id="n2zm1Caj27rSro79MBF2-55" value="" style="group" vertex="1" connectable="0" parent="1">
          <mxGeometry x="1160" y="350" width="380" height="280" as="geometry" />
        </mxCell>
        <mxCell id="n2zm1Caj27rSro79MBF2-56" value="" style="rounded=1;whiteSpace=wrap;html=1;" vertex="1" parent="n2zm1Caj27rSro79MBF2-55">
          <mxGeometry width="380" height="280" as="geometry" />
        </mxCell>
        <mxCell id="n2zm1Caj27rSro79MBF2-76" style="edgeStyle=orthogonalEdgeStyle;rounded=0;orthogonalLoop=1;jettySize=auto;html=1;entryX=0.982;entryY=0.426;entryDx=0;entryDy=0;entryPerimeter=0;exitX=0.982;exitY=0.55;exitDx=0;exitDy=0;exitPerimeter=0;" edge="1" parent="n2zm1Caj27rSro79MBF2-55" source="n2zm1Caj27rSro79MBF2-77" target="n2zm1Caj27rSro79MBF2-80">
          <mxGeometry relative="1" as="geometry">
            <Array as="points">
              <mxPoint x="360" y="219.95000000000005" />
              <mxPoint x="360" y="61.94999999999999" />
            </Array>
          </mxGeometry>
        </mxCell>
        <mxCell id="n2zm1Caj27rSro79MBF2-77" value="" style="image;sketch=0;aspect=fixed;html=1;points=[];align=center;fontSize=12;image=img/lib/mscae/Docker.svg;" vertex="1" parent="n2zm1Caj27rSro79MBF2-55">
          <mxGeometry x="204.24" y="167.95000000000005" width="114.76" height="94.1" as="geometry" />
        </mxCell>
        <mxCell id="n2zm1Caj27rSro79MBF2-78" style="edgeStyle=orthogonalEdgeStyle;rounded=0;orthogonalLoop=1;jettySize=auto;html=1;" edge="1" parent="n2zm1Caj27rSro79MBF2-55" target="n2zm1Caj27rSro79MBF2-80">
          <mxGeometry relative="1" as="geometry">
            <mxPoint x="141" y="68.5" as="sourcePoint" />
          </mxGeometry>
        </mxCell>
        <mxCell id="n2zm1Caj27rSro79MBF2-80" value="Spring" style="image;aspect=fixed;html=1;points=[];align=center;fontSize=12;image=img/lib/azure2/compute/Azure_Spring_Cloud.svg;" vertex="1" parent="n2zm1Caj27rSro79MBF2-55">
          <mxGeometry x="211.6199999999999" y="18.94999999999999" width="100" height="100" as="geometry" />
        </mxCell>
        <mxCell id="NxCngeiVD-eRV_JA3t_T-2" value="AWS Lambda" style="outlineConnect=0;dashed=0;verticalLabelPosition=bottom;verticalAlign=top;align=center;html=1;shape=mxgraph.aws3.lambda_function;fillColor=#F58534;gradientColor=none;" vertex="1" parent="n2zm1Caj27rSro79MBF2-55">
          <mxGeometry x="33" y="13.95" width="105.42" height="110" as="geometry" />
        </mxCell>
        <mxCell id="n2zm1Caj27rSro79MBF2-82" style="edgeStyle=orthogonalEdgeStyle;rounded=0;orthogonalLoop=1;jettySize=auto;html=1;entryX=0.581;entryY=1.002;entryDx=0;entryDy=0;entryPerimeter=0;exitX=0.5;exitY=1;exitDx=0;exitDy=0;exitPerimeter=0;" edge="1" parent="1" source="NxCngeiVD-eRV_JA3t_T-3" target="n2zm1Caj27rSro79MBF2-46">
          <mxGeometry relative="1" as="geometry">
            <Array as="points">
              <mxPoint x="308" y="730" />
              <mxPoint x="1384" y="730" />
            </Array>
            <mxPoint x="364" y="305" as="sourcePoint" />
          </mxGeometry>
        </mxCell>
        <mxCell id="n2zm1Caj27rSro79MBF2-83" value="HTTP&lt;div&gt;(80/443 -&amp;gt; 8080)&lt;/div&gt;" style="edgeLabel;html=1;align=center;verticalAlign=middle;resizable=0;points=[];fontSize=13;" vertex="1" connectable="0" parent="1">
          <mxGeometry x="880" y="710" as="geometry" />
        </mxCell>
        <mxCell id="n2zm1Caj27rSro79MBF2-89" style="edgeStyle=orthogonalEdgeStyle;rounded=0;orthogonalLoop=1;jettySize=auto;html=1;entryX=0;entryY=0.5;entryDx=0;entryDy=0;" edge="1" parent="1" source="n2zm1Caj27rSro79MBF2-85" target="n2zm1Caj27rSro79MBF2-88">
          <mxGeometry relative="1" as="geometry" />
        </mxCell>
        <mxCell id="n2zm1Caj27rSro79MBF2-90" value="Eventos" style="edgeLabel;html=1;align=center;verticalAlign=middle;resizable=0;points=[];" vertex="1" connectable="0" parent="n2zm1Caj27rSro79MBF2-89">
          <mxGeometry x="-0.2324" y="1" relative="1" as="geometry">
            <mxPoint x="17" y="-11" as="offset" />
          </mxGeometry>
        </mxCell>
        <mxCell id="n2zm1Caj27rSro79MBF2-85" value="&lt;font style=&quot;font-size: 15px;&quot;&gt;EventBridge&lt;/font&gt;" style="sketch=0;points=[[0,0,0],[0.25,0,0],[0.5,0,0],[0.75,0,0],[1,0,0],[0,1,0],[0.25,1,0],[0.5,1,0],[0.75,1,0],[1,1,0],[0,0.25,0],[0,0.5,0],[0,0.75,0],[1,0.25,0],[1,0.5,0],[1,0.75,0]];outlineConnect=0;fontColor=#232F3E;fillColor=#E7157B;strokeColor=#ffffff;dashed=0;verticalLabelPosition=bottom;verticalAlign=top;align=center;html=1;fontSize=12;fontStyle=0;aspect=fixed;shape=mxgraph.aws4.resourceIcon;resIcon=mxgraph.aws4.eventbridge;" vertex="1" parent="1">
          <mxGeometry x="1760" y="50" width="140" height="140" as="geometry" />
        </mxCell>
        <mxCell id="n2zm1Caj27rSro79MBF2-88" value="&lt;font style=&quot;font-size: 15px;&quot;&gt;Otros MicroServicios&lt;/font&gt;" style="image;aspect=fixed;perimeter=ellipsePerimeter;html=1;align=center;shadow=0;dashed=0;fontColor=#4277BB;labelBackgroundColor=default;fontSize=12;spacingTop=3;image=img/lib/ibm/miscellaneous/microservices_application.svg;" vertex="1" parent="1">
          <mxGeometry x="2010" y="56.5" width="125" height="125" as="geometry" />
        </mxCell>
        <mxCell id="n2zm1Caj27rSro79MBF2-91" value="" style="sketch=0;points=[[0,0,0],[0.25,0,0],[0.5,0,0],[0.75,0,0],[1,0,0],[0,1,0],[0.25,1,0],[0.5,1,0],[0.75,1,0],[1,1,0],[0,0.25,0],[0,0.5,0],[0,0.75,0],[1,0.25,0],[1,0.5,0],[1,0.75,0]];outlineConnect=0;fontColor=#ffffff;fillColor=#60a917;strokeColor=#2D7600;dashed=0;verticalLabelPosition=bottom;verticalAlign=top;align=center;html=1;fontSize=12;fontStyle=0;aspect=fixed;shape=mxgraph.aws4.resourceIcon;resIcon=mxgraph.aws4.rds;" vertex="1" parent="1">
          <mxGeometry x="1758" y="400" width="142" height="142" as="geometry" />
        </mxCell>
        <mxCell id="n2zm1Caj27rSro79MBF2-94" value="Puerto 5432/3306&lt;div&gt;(Privado)&lt;/div&gt;" style="edgeLabel;html=1;align=center;verticalAlign=middle;resizable=0;points=[];fontSize=15;" connectable="0" vertex="1" parent="1">
          <mxGeometry x="1654" y="380" as="geometry" />
        </mxCell>
        <mxCell id="Y1fJOm3CtyvL4rS2c9jp-1" value="&lt;span&gt;RDS&lt;/span&gt;&lt;div&gt;PostgreSQL&lt;/div&gt;&lt;div&gt;Red Privada&lt;/div&gt;" style="text;html=1;align=center;verticalAlign=middle;resizable=0;points=[];autosize=1;strokeColor=none;fillColor=none;fontColor=default;fontSize=15;" vertex="1" parent="1">
          <mxGeometry x="1774" y="537" width="110" height="70" as="geometry" />
        </mxCell>
        <mxCell id="NxCngeiVD-eRV_JA3t_T-3" value="&lt;div&gt;&lt;font style=&quot;color: light-dark(rgb(189, 199, 212), rgb(255, 255, 255)); font-size: 15px;&quot;&gt;AWS API Gateway&lt;/font&gt;&lt;/div&gt;" style="outlineConnect=0;dashed=0;verticalLabelPosition=bottom;verticalAlign=top;align=center;html=1;shape=mxgraph.aws3.api_gateway;fillColor=#D9A741;gradientColor=none;" vertex="1" parent="1">
          <mxGeometry x="259" y="245" width="98.71" height="120" as="geometry" />
        </mxCell>
        <mxCell id="NxCngeiVD-eRV_JA3t_T-6" value="&lt;font style=&quot;font-size: 18px;&quot;&gt;Amazon Cognito&lt;/font&gt;" style="outlineConnect=0;dashed=0;verticalLabelPosition=bottom;verticalAlign=top;align=center;html=1;shape=mxgraph.aws3.cognito;fillColor=#AD688B;gradientColor=none;" vertex="1" parent="1">
          <mxGeometry x="768" y="-220" width="90" height="96.43" as="geometry" />
        </mxCell>
        <mxCell id="NxCngeiVD-eRV_JA3t_T-10" value="Amazon SageMaker" style="sketch=0;outlineConnect=0;fontColor=#232F3E;gradientColor=none;strokeColor=#ffffff;fillColor=#232F3E;dashed=0;verticalLabelPosition=middle;verticalAlign=bottom;align=center;html=1;whiteSpace=wrap;fontSize=14;fontStyle=1;spacing=3;shape=mxgraph.aws4.productIcon;prIcon=mxgraph.aws4.sagemaker;" vertex="1" parent="1">
          <mxGeometry x="1295" y="-235" width="110" height="150" as="geometry" />
        </mxCell>
        <mxCell id="NxCngeiVD-eRV_JA3t_T-13" style="edgeStyle=orthogonalEdgeStyle;rounded=0;orthogonalLoop=1;jettySize=auto;html=1;entryX=0.794;entryY=0.001;entryDx=0;entryDy=0;entryPerimeter=0;" edge="1" parent="1" source="NxCngeiVD-eRV_JA3t_T-10" target="n2zm1Caj27rSro79MBF2-46">
          <mxGeometry relative="1" as="geometry">
            <Array as="points">
              <mxPoint x="1473" y="-170" />
            </Array>
          </mxGeometry>
        </mxCell>
        <mxCell id="NxCngeiVD-eRV_JA3t_T-19" value="Inference" style="edgeLabel;html=1;align=center;verticalAlign=middle;resizable=0;points=[];fontSize=16;" connectable="0" vertex="1" parent="NxCngeiVD-eRV_JA3t_T-13">
          <mxGeometry x="-0.0581" y="4" relative="1" as="geometry">
            <mxPoint x="-8" as="offset" />
          </mxGeometry>
        </mxCell>
        <mxCell id="NxCngeiVD-eRV_JA3t_T-14" style="edgeStyle=orthogonalEdgeStyle;rounded=0;orthogonalLoop=1;jettySize=auto;html=1;entryX=0;entryY=0.5;entryDx=0;entryDy=0;entryPerimeter=0;" edge="1" parent="1" source="n2zm1Caj27rSro79MBF2-34" target="NxCngeiVD-eRV_JA3t_T-6">
          <mxGeometry relative="1" as="geometry">
            <Array as="points">
              <mxPoint x="670" y="-170" />
              <mxPoint x="765" y="-170" />
            </Array>
          </mxGeometry>
        </mxCell>
        <mxCell id="NxCngeiVD-eRV_JA3t_T-16" value="Request Token" style="edgeLabel;html=1;align=center;verticalAlign=middle;resizable=0;points=[];fontSize=16;" connectable="0" vertex="1" parent="NxCngeiVD-eRV_JA3t_T-14">
          <mxGeometry x="-0.1593" relative="1" as="geometry">
            <mxPoint x="-10" y="9" as="offset" />
          </mxGeometry>
        </mxCell>
        <mxCell id="NxCngeiVD-eRV_JA3t_T-15" style="edgeStyle=orthogonalEdgeStyle;rounded=0;orthogonalLoop=1;jettySize=auto;html=1;entryX=0.811;entryY=0.005;entryDx=0;entryDy=0;entryPerimeter=0;" edge="1" parent="1" source="NxCngeiVD-eRV_JA3t_T-6" target="n2zm1Caj27rSro79MBF2-34">
          <mxGeometry relative="1" as="geometry">
            <Array as="points">
              <mxPoint x="941" y="-170" />
            </Array>
          </mxGeometry>
        </mxCell>
        <mxCell id="NxCngeiVD-eRV_JA3t_T-17" value="Return Token" style="edgeLabel;html=1;align=center;verticalAlign=middle;resizable=0;points=[];fontSize=16;" connectable="0" vertex="1" parent="NxCngeiVD-eRV_JA3t_T-15">
          <mxGeometry x="0.2926" y="1" relative="1" as="geometry">
            <mxPoint x="-2" y="-14" as="offset" />
          </mxGeometry>
        </mxCell>
        <mxCell id="NxCngeiVD-eRV_JA3t_T-20" value="&lt;font style=&quot;font-size: 16px;&quot;&gt;Validates JWT with&amp;nbsp;&lt;/font&gt;&lt;div&gt;&lt;font style=&quot;font-size: 16px;&quot;&gt;Cognito Authorizer&lt;/font&gt;&lt;/div&gt;" style="outlineConnect=0;dashed=0;verticalLabelPosition=bottom;verticalAlign=top;align=center;html=1;shape=mxgraph.aws3.saml_token;fillColor=#D2D3D3;gradientColor=none;" vertex="1" parent="1">
          <mxGeometry x="420" y="84.46000000000001" width="93" height="97.04" as="geometry" />
        </mxCell>
        <mxCell id="NxCngeiVD-eRV_JA3t_T-24" value="&lt;font style=&quot;font-size: 15px;&quot;&gt;AWS IAM&lt;/font&gt;" style="outlineConnect=0;dashed=0;verticalLabelPosition=bottom;verticalAlign=top;align=center;html=1;shape=mxgraph.aws3.iam;fillColor=#759C3E;gradientColor=none;" vertex="1" parent="1">
          <mxGeometry x="1633.08" y="438" width="51.85" height="100" as="geometry" />
        </mxCell>
        <mxCell id="NxCngeiVD-eRV_JA3t_T-28" value="&lt;font style=&quot;font-size: 15px;&quot;&gt;AWS IAM&lt;/font&gt;" style="outlineConnect=0;dashed=0;verticalLabelPosition=bottom;verticalAlign=top;align=center;html=1;shape=mxgraph.aws3.iam;fillColor=#759C3E;gradientColor=none;" vertex="1" parent="1">
          <mxGeometry x="282.42999999999995" y="675" width="51.85" height="100" as="geometry" />
        </mxCell>
        <mxCell id="NxCngeiVD-eRV_JA3t_T-33" value="Public Network&lt;br&gt;PublicSubnet-Frontend" style="text;html=1;align=center;verticalAlign=middle;whiteSpace=wrap;rounded=0;fontSize=25;" vertex="1" parent="1">
          <mxGeometry x="485" y="-340" width="340" height="70" as="geometry" />
        </mxCell>
        <mxCell id="NxCngeiVD-eRV_JA3t_T-35" value="Private Network&lt;br&gt;PrivateSubnet-Backend" style="text;html=1;align=center;verticalAlign=middle;whiteSpace=wrap;rounded=0;fontSize=25;" vertex="1" parent="1">
          <mxGeometry x="1360" y="-340" width="340" height="70" as="geometry" />
        </mxCell>
        <mxCell id="n2zm1Caj27rSro79MBF2-63" value="" style="sketch=0;outlineConnect=0;fontColor=#232F3E;gradientColor=none;fillColor=#ED7100;strokeColor=none;dashed=0;verticalLabelPosition=bottom;verticalAlign=top;align=center;html=1;fontSize=12;fontStyle=0;aspect=fixed;pointerEvents=1;shape=mxgraph.aws4.auto_scaling2;fillStyle=solid;direction=south;" vertex="1" parent="1">
          <mxGeometry x="1500" y="-100" width="100" height="100" as="geometry" />
        </mxCell>
        <mxCell id="NxCngeiVD-eRV_JA3t_T-39" value="&lt;span style=&quot;text-wrap-mode: nowrap;&quot;&gt;AUTO SCALING&amp;nbsp;&lt;/span&gt;&lt;div&gt;&lt;span style=&quot;text-wrap-mode: nowrap;&quot;&gt;GROUP&lt;/span&gt;&lt;/div&gt;" style="text;html=1;align=center;verticalAlign=middle;whiteSpace=wrap;rounded=0;fontColor=light-dark(#000000,#FFFFFF);fontSize=16;" vertex="1" parent="1">
          <mxGeometry x="430" y="-90" width="190" height="30" as="geometry" />
        </mxCell>
        <mxCell id="NxCngeiVD-eRV_JA3t_T-40" value="" style="sketch=0;outlineConnect=0;fontColor=#232F3E;gradientColor=none;fillColor=#ED7100;strokeColor=none;dashed=0;verticalLabelPosition=bottom;verticalAlign=top;align=center;html=1;fontSize=12;fontStyle=0;aspect=fixed;pointerEvents=1;shape=mxgraph.aws4.auto_scaling2;fillStyle=solid;direction=south;" vertex="1" parent="1">
          <mxGeometry x="560" y="-100" width="100" height="100" as="geometry" />
        </mxCell>
        <mxCell id="NxCngeiVD-eRV_JA3t_T-41" value="Web Client" style="text;html=1;align=center;verticalAlign=middle;whiteSpace=wrap;rounded=0;fontSize=25;" vertex="1" parent="1">
          <mxGeometry x="725" y="-30" width="170" height="30" as="geometry" />
        </mxCell>
        <mxCell id="NxCngeiVD-eRV_JA3t_T-44" value="" style="group" connectable="0" vertex="1" parent="1">
          <mxGeometry x="520" y="-480" width="1060" height="75" as="geometry" />
        </mxCell>
        <mxCell id="NxCngeiVD-eRV_JA3t_T-43" value="" style="rounded=1;whiteSpace=wrap;html=1;" vertex="1" parent="NxCngeiVD-eRV_JA3t_T-44">
          <mxGeometry x="52" width="950" height="75" as="geometry" />
        </mxCell>
        <mxCell id="NxCngeiVD-eRV_JA3t_T-42" value="DIAGRAMA DE ARQUITECTURA DE SOLUCIÃN" style="text;html=1;align=center;verticalAlign=middle;whiteSpace=wrap;rounded=0;fontSize=30;fontStyle=1" vertex="1" parent="NxCngeiVD-eRV_JA3t_T-44">
          <mxGeometry y="25" width="1060" height="30" as="geometry" />
        </mxCell>
      </root>
    </mxGraphModel>
  </diagram>
</mxfile>
